<svg width="56" height="56" viewBox="0 0 56 56" fill="none" xmlns="http://www.w3.org/2000/svg">
<path d="M49.0003 43.1667H34.5803C34.2319 42.1881 33.6701 41.2993 32.9356 40.5648C32.201 39.8303 31.3123 39.2684 30.3337 38.92V31.5H37.7303C40.201 31.5812 42.6157 30.7538 44.5173 29.1743C46.419 27.5949 47.6756 25.3732 48.0493 22.9296C48.423 20.486 47.8879 17.9902 46.5453 15.9146C45.2027 13.839 43.1456 12.3277 40.7637 11.6667C39.5159 8.90185 37.4038 6.61709 34.7454 5.15624C32.087 3.69538 29.026 3.13746 26.0232 3.56645C23.0203 3.99543 20.238 5.3881 18.0949 7.53488C15.9519 9.68165 14.5641 12.4664 14.1403 15.47C12.2414 16.0025 10.5994 17.2041 9.51744 18.853C8.4355 20.5018 7.98676 22.4865 8.25411 24.4405C8.52146 26.3944 9.48684 28.1856 10.9719 29.4832C12.457 30.7808 14.3615 31.4972 16.3337 31.5H25.667V38.92C24.6884 39.2684 23.7996 39.8303 23.0651 40.5648C22.3306 41.2993 21.7687 42.1881 21.4203 43.1667H7.00033C6.38149 43.1667 5.78799 43.4125 5.35041 43.8501C4.91282 44.2877 4.66699 44.8812 4.66699 45.5C4.66699 46.1188 4.91282 46.7123 5.35041 47.1499C5.78799 47.5875 6.38149 47.8333 7.00033 47.8333H21.4203C21.9108 49.1847 22.8055 50.3523 23.9827 51.1774C25.16 52.0025 26.5627 52.4451 28.0003 52.4451C29.4379 52.4451 30.8407 52.0025 32.0179 51.1774C33.1952 50.3523 34.0899 49.1847 34.5803 47.8333H49.0003C49.6192 47.8333 50.2127 47.5875 50.6502 47.1499C51.0878 46.7123 51.3337 46.1188 51.3337 45.5C51.3337 44.8812 51.0878 44.2877 50.6502 43.8501C50.2127 43.4125 49.6192 43.1667 49.0003 43.1667ZM16.3337 26.8333C15.4054 26.8333 14.5152 26.4646 13.8588 25.8082C13.2024 25.1518 12.8337 24.2616 12.8337 23.3333C12.8337 22.4051 13.2024 21.5148 13.8588 20.8585C14.5152 20.2021 15.4054 19.8333 16.3337 19.8333C16.9525 19.8333 17.546 19.5875 17.9836 19.1499C18.4212 18.7123 18.667 18.1188 18.667 17.5C18.6609 15.2846 19.443 13.1392 20.8736 11.4476C22.3042 9.75591 24.2898 8.62829 26.4755 8.26635C28.6612 7.90441 30.9043 8.33175 32.8038 9.47196C34.7033 10.6122 36.1353 12.3909 36.8437 14.49C36.977 14.891 37.2168 15.2482 37.5373 15.5235C37.8579 15.7989 38.2472 15.982 38.6637 16.0533C39.9266 16.264 41.0734 16.9173 41.8985 17.8964C42.7237 18.8754 43.1733 20.1163 43.167 21.3967C43.1609 22.8367 42.5861 24.2159 41.5678 25.2342C40.5496 26.2524 39.1703 26.8272 37.7303 26.8333H16.3337ZM28.0003 47.8333C27.5388 47.8333 27.0877 47.6965 26.704 47.4401C26.3203 47.1837 26.0212 46.8193 25.8446 46.3929C25.668 45.9666 25.6218 45.4974 25.7118 45.0448C25.8019 44.5922 26.0241 44.1764 26.3504 43.8501C26.6767 43.5238 27.0925 43.3015 27.5451 43.2115C27.9977 43.1215 28.4669 43.1677 28.8933 43.3443C29.3196 43.5209 29.684 43.82 29.9404 44.2037C30.1968 44.5874 30.3337 45.0385 30.3337 45.5C30.3337 46.1188 30.0878 46.7123 29.6502 47.1499C29.2127 47.5875 28.6192 47.8333 28.0003 47.8333Z" fill="black"/>
</svg>
