<svg width="56" height="56" viewBox="0 0 56 56" fill="none" xmlns="http://www.w3.org/2000/svg">
<path d="M49.0003 4.66669H7.00033C6.38149 4.66669 5.78799 4.91252 5.35041 5.3501C4.91282 5.78769 4.66699 6.38118 4.66699 7.00002V49C4.66699 49.6189 4.91282 50.2124 5.35041 50.6499C5.78799 51.0875 6.38149 51.3334 7.00033 51.3334H49.0003C49.6192 51.3334 50.2127 51.0875 50.6502 50.6499C51.0878 50.2124 51.3337 49.6189 51.3337 49V7.00002C51.3337 6.38118 51.0878 5.78769 50.6502 5.3501C50.2127 4.91252 49.6192 4.66669 49.0003 4.66669V4.66669ZM18.667 46.6667H9.33366V9.33335H18.667V46.6667ZM46.667 46.6667H23.3337V30.3334H46.667V46.6667ZM46.667 25.6667H23.3337V9.33335H46.667V25.6667Z" fill="black"/>
</svg>
