<svg width="56" height="56" viewBox="0 0 56 56" fill="none" xmlns="http://www.w3.org/2000/svg">
<path d="M49.0003 4.66669H21.0003C20.3815 4.66669 19.788 4.91252 19.3504 5.3501C18.9128 5.78769 18.667 6.38118 18.667 7.00002V16.3334H14.0003C13.3815 16.3334 12.788 16.5792 12.3504 17.0168C11.9128 17.4544 11.667 18.0478 11.667 18.6667V28H7.00033C6.38149 28 5.78799 28.2459 5.35041 28.6834C4.91282 29.121 4.66699 29.7145 4.66699 30.3334V49C4.66699 49.6189 4.91282 50.2124 5.35041 50.6499C5.78799 51.0875 6.38149 51.3334 7.00033 51.3334H25.667C26.2858 51.3334 26.8793 51.0875 27.3169 50.6499C27.7545 50.2124 28.0003 49.6189 28.0003 49V44.3334H37.3337C37.9525 44.3334 38.546 44.0875 38.9836 43.6499C39.4212 43.2124 39.667 42.6189 39.667 42V37.3334H49.0003C49.6192 37.3334 50.2127 37.0875 50.6502 36.6499C51.0878 36.2124 51.3337 35.6189 51.3337 35V7.00002C51.3337 6.38118 51.0878 5.78769 50.6502 5.3501C50.2127 4.91252 49.6192 4.66669 49.0003 4.66669V4.66669ZM23.3337 46.6667H9.33366V32.6667H23.3337V46.6667ZM35.0003 39.6667H28.0003V30.3334C28.0003 29.7145 27.7545 29.121 27.3169 28.6834C26.8793 28.2459 26.2858 28 25.667 28H16.3337V21H35.0003V39.6667ZM46.667 32.6667H39.667V18.6667C39.667 18.0478 39.4212 17.4544 38.9836 17.0168C38.546 16.5792 37.9525 16.3334 37.3337 16.3334H23.3337V9.33335H46.667V32.6667Z" fill="black"/>
</svg>
