<svg width="40" height="40" viewBox="0 0 40 40" fill="none" xmlns="http://www.w3.org/2000/svg">
<path d="M32.5876 4.99515C32.1677 5.01468 31.7722 5.13675 31.4206 5.27347H31.4157C31.0593 5.41507 29.3649 6.12796 26.7917 7.20706C24.2185 8.29105 20.8786 9.6973 17.5632 11.0938C10.9421 13.8819 4.43331 16.626 4.43331 16.626L4.51143 16.5967C4.51143 16.5967 4.06222 16.7432 3.59347 17.0655C3.35421 17.2217 3.09054 17.4366 2.86104 17.7735C2.63155 18.1104 2.446 18.628 2.51436 19.1602C2.62667 20.0635 3.21261 20.6055 3.63253 20.9034C4.05733 21.2061 4.46261 21.3477 4.46261 21.3477H4.47237L10.5759 23.4034C10.8493 24.2823 12.4362 29.4971 12.8171 30.6983C13.0417 31.416 13.2614 31.8653 13.5349 32.2071C13.6667 32.3828 13.823 32.5293 14.0085 32.6465C14.0817 32.6905 14.1599 32.7246 14.238 32.7539C14.2624 32.7686 14.2868 32.7735 14.3161 32.7784L14.2526 32.7637C14.2722 32.7686 14.2868 32.7832 14.3015 32.7881C14.3503 32.8028 14.3845 32.8077 14.448 32.8174C15.4148 33.1104 16.1911 32.5098 16.1911 32.5098L16.2351 32.4756L19.8386 29.1944L25.8786 33.8282L26.0153 33.8868C27.2751 34.4385 28.5495 34.1309 29.2233 33.5889C29.9021 33.042 30.1657 32.3438 30.1657 32.3438L30.2097 32.2315L34.8776 8.32035C35.0095 7.72953 35.0437 7.17777 34.8972 6.64066C34.7507 6.10355 34.3747 5.60062 33.9206 5.33206C33.4616 5.05863 33.0075 4.97562 32.5876 4.99515ZM32.4607 7.55863C32.4558 7.63675 32.4704 7.62699 32.4362 7.77835V7.793L27.8122 31.4551C27.7927 31.4893 27.7585 31.5625 27.6657 31.6358C27.5681 31.7139 27.4899 31.7627 27.0847 31.6016L19.697 25.9375L15.2341 30.0049L16.1716 24.0186C16.1716 24.0186 27.7439 13.2325 28.2419 12.7686C28.7399 12.3047 28.5739 12.2071 28.5739 12.2071C28.6081 11.6407 27.822 12.041 27.822 12.041L12.6023 21.4698L12.5974 21.4453L5.30245 18.9893V18.9844C5.29757 18.9844 5.2878 18.9795 5.28292 18.9795C5.2878 18.9795 5.32198 18.9649 5.32198 18.9649L5.36104 18.9453L5.40011 18.9307C5.40011 18.9307 11.9138 16.1866 18.5349 13.3985C21.8503 12.002 25.1901 10.5957 27.7585 9.51175C30.3269 8.43265 32.2263 7.64163 32.3337 7.59769C32.4362 7.55863 32.3874 7.55863 32.4607 7.55863Z" fill="#97FF00"/>
</svg>
