<svg width="56" height="56" viewBox="0 0 56 56" fill="none" xmlns="http://www.w3.org/2000/svg">
<path d="M31.7337 25.4334C31.967 25.6667 32.2003 25.6667 32.667 25.6667H49.0003C50.4003 25.6667 51.3337 24.7334 51.3337 23.3334C51.3337 22.8667 51.3337 22.6334 51.1003 22.4L42.9337 6.06669C42.2337 4.90002 40.8337 4.43335 39.667 5.13335C39.4337 5.36669 38.967 5.60002 38.7337 6.06669L30.567 22.4C30.1003 23.3334 30.567 24.7334 31.7337 25.4334ZM40.8337 12.1334L45.267 21H36.4003L40.8337 12.1334ZM15.167 4.66669C9.33366 4.66669 4.66699 9.33335 4.66699 15.1667C4.66699 21 9.33366 25.6667 15.167 25.6667C21.0003 25.6667 25.667 21 25.667 15.1667C25.667 9.33335 21.0003 4.66669 15.167 4.66669ZM15.167 21C11.9003 21 9.33366 18.4334 9.33366 15.1667C9.33366 11.9 11.9003 9.33335 15.167 9.33335C18.4337 9.33335 21.0003 11.9 21.0003 15.1667C21.0003 18.4334 18.4337 21 15.167 21ZM24.967 31.0334C24.0337 30.1 22.6337 30.1 21.7003 31.0334L15.167 37.5667L8.63366 31.0334C7.70033 30.1 6.30033 30.1 5.36699 31.0334C4.43366 31.9667 4.43366 33.3667 5.36699 34.3L11.9003 40.8334L5.36699 47.3667C4.43366 48.3 4.43366 49.7 5.36699 50.6334C6.30033 51.5667 7.70033 51.5667 8.63366 50.6334L15.167 44.1L21.7003 50.6334C22.6337 51.5667 24.0337 51.5667 24.967 50.6334C25.9003 49.7 25.9003 48.3 24.967 47.3667L18.4337 40.8334L24.967 34.3C25.9003 33.3667 25.9003 31.9667 24.967 31.0334ZM49.0003 30.3334H32.667C31.267 30.3334 30.3337 31.2667 30.3337 32.6667V49C30.3337 50.4 31.267 51.3334 32.667 51.3334H49.0003C50.4003 51.3334 51.3337 50.4 51.3337 49V32.6667C51.3337 31.2667 50.4003 30.3334 49.0003 30.3334ZM46.667 46.6667H35.0003V35H46.667V46.6667Z" fill="black"/>
</svg>
