<svg width="56" height="56" viewBox="0 0 56 56" fill="none" xmlns="http://www.w3.org/2000/svg">
<path d="M51.333 35H46.6663V28C46.6663 27.3811 46.4205 26.7876 45.9829 26.3501C45.5453 25.9125 44.9518 25.6666 44.333 25.6666H30.333V21H34.9997C35.6185 21 36.212 20.7541 36.6496 20.3166C37.0872 19.879 37.333 19.2855 37.333 18.6666V4.66665C37.333 4.04781 37.0872 3.45432 36.6496 3.01673C36.212 2.57915 35.6185 2.33331 34.9997 2.33331H20.9997C20.3808 2.33331 19.7873 2.57915 19.3498 3.01673C18.9122 3.45432 18.6663 4.04781 18.6663 4.66665V18.6666C18.6663 19.2855 18.9122 19.879 19.3498 20.3166C19.7873 20.7541 20.3808 21 20.9997 21H25.6663V25.6666H11.6663C11.0475 25.6666 10.454 25.9125 10.0164 26.3501C9.57884 26.7876 9.33301 27.3811 9.33301 28V35H4.66634C4.0475 35 3.45401 35.2458 3.01643 35.6834C2.57884 36.121 2.33301 36.7145 2.33301 37.3333V51.3333C2.33301 51.9521 2.57884 52.5456 3.01643 52.9832C3.45401 53.4208 4.0475 53.6666 4.66634 53.6666H18.6663C19.2852 53.6666 19.8787 53.4208 20.3163 52.9832C20.7538 52.5456 20.9997 51.9521 20.9997 51.3333V37.3333C20.9997 36.7145 20.7538 36.121 20.3163 35.6834C19.8787 35.2458 19.2852 35 18.6663 35H13.9997V30.3333H41.9997V35H37.333C36.7142 35 36.1207 35.2458 35.6831 35.6834C35.2455 36.121 34.9997 36.7145 34.9997 37.3333V51.3333C34.9997 51.9521 35.2455 52.5456 35.6831 52.9832C36.1207 53.4208 36.7142 53.6666 37.333 53.6666H51.333C51.9518 53.6666 52.5453 53.4208 52.9829 52.9832C53.4205 52.5456 53.6663 51.9521 53.6663 51.3333V37.3333C53.6663 36.7145 53.4205 36.121 52.9829 35.6834C52.5453 35.2458 51.9518 35 51.333 35ZM16.333 39.6666V49H6.99967V39.6666H16.333ZM23.333 16.3333V6.99998H32.6663V16.3333H23.333ZM48.9997 49H39.6663V39.6666H48.9997V49Z" fill="black"/>
</svg>
